<svg width="68" height="12" viewBox="0 0 68 12" fill="none" xmlns="http://www.w3.org/2000/svg">
<path d="M0.776922 11V9.684H3.52092V2.376H3.40892L1.14092 4.798L0.174922 3.93L2.66692 1.228H5.07492V9.684H7.45492V11H0.776922ZM9.96945 11.168C9.62412 11.168 9.36745 11.0793 9.19945 10.902C9.03145 10.7153 8.94745 10.4867 8.94745 10.216V10.006C8.94745 9.73533 9.03145 9.51133 9.19945 9.334C9.36745 9.14733 9.62412 9.054 9.96945 9.054C10.3148 9.054 10.5715 9.14733 10.7395 9.334C10.9075 9.51133 10.9915 9.73533 10.9915 10.006V10.216C10.9915 10.4867 10.9075 10.7153 10.7395 10.902C10.5715 11.0793 10.3148 11.168 9.96945 11.168ZM17.026 11V9.096H12.49V7.738L16.452 1.228H18.524V7.85H19.854V9.096H18.524V11H17.026ZM13.834 7.85H17.026V2.67H16.928L13.834 7.85ZM21.4865 0.64H23.0125V6.996H23.0825L24.0905 5.694L25.8405 3.72H27.6185L25.0705 6.534L27.9265 11H26.1065L24.0205 7.528L23.0125 8.62V11H21.4865V0.64ZM34.0334 11L31.5554 3.72H33.0674L34.1734 7.038L34.9154 9.586H34.9994L35.7414 7.038L36.8754 3.72H38.3314L35.8254 11H34.0334ZM40.3854 2.418C40.0681 2.418 39.8348 2.34333 39.6854 2.194C39.5454 2.04467 39.4754 1.85333 39.4754 1.62V1.382C39.4754 1.14867 39.5454 0.957333 39.6854 0.807999C39.8348 0.658666 40.0681 0.584 40.3854 0.584C40.7028 0.584 40.9314 0.658666 41.0714 0.807999C41.2114 0.957333 41.2814 1.14867 41.2814 1.382V1.62C41.2814 1.85333 41.2114 2.04467 41.0714 2.194C40.9314 2.34333 40.7028 2.418 40.3854 2.418ZM39.6154 3.72H41.1414V11H39.6154V3.72ZM46.1765 11.168C45.6538 11.168 45.1872 11.0793 44.7765 10.902C44.3658 10.7247 44.0158 10.4727 43.7265 10.146C43.4372 9.81 43.2132 9.40867 43.0545 8.942C42.9052 8.466 42.8305 7.93867 42.8305 7.36C42.8305 6.78133 42.9052 6.25867 43.0545 5.792C43.2132 5.316 43.4372 4.91467 43.7265 4.588C44.0158 4.252 44.3658 3.99533 44.7765 3.818C45.1872 3.64067 45.6538 3.552 46.1765 3.552C46.7085 3.552 47.1752 3.64533 47.5765 3.832C47.9872 4.01867 48.3278 4.28 48.5985 4.616C48.8692 4.94267 49.0698 5.32533 49.2005 5.764C49.3405 6.20267 49.4105 6.674 49.4105 7.178V7.752H44.4125V7.99C44.4125 8.55 44.5758 9.012 44.9025 9.376C45.2385 9.73067 45.7145 9.908 46.3305 9.908C46.7785 9.908 47.1565 9.81 47.4645 9.614C47.7725 9.418 48.0338 9.152 48.2485 8.816L49.1445 9.698C48.8738 10.146 48.4818 10.5053 47.9685 10.776C47.4552 11.0373 46.8578 11.168 46.1765 11.168ZM46.1765 4.742C45.9152 4.742 45.6725 4.78867 45.4485 4.882C45.2338 4.97533 45.0472 5.106 44.8885 5.274C44.7392 5.442 44.6225 5.64267 44.5385 5.876C44.4545 6.10933 44.4125 6.366 44.4125 6.646V6.744H47.8005V6.604C47.8005 6.044 47.6558 5.596 47.3665 5.26C47.0772 4.91467 46.6805 4.742 46.1765 4.742ZM50.3035 3.72H51.7875L52.5295 6.772L53.1875 9.53H53.2295L53.9855 6.772L54.8675 3.72H56.2395L57.1355 6.772L57.9055 9.53H57.9475L58.5915 6.772L59.3475 3.72H60.7615L58.8015 11H57.0795L56.1275 7.682L55.5395 5.638H55.5115L54.9375 7.682L53.9715 11H52.2915L50.3035 3.72ZM64.484 11.168C63.7934 11.168 63.2147 11.0467 62.748 10.804C62.2814 10.5613 61.8754 10.2253 61.53 9.796L62.51 8.9C62.7807 9.22667 63.0794 9.48333 63.406 9.67C63.742 9.84733 64.1294 9.936 64.568 9.936C65.016 9.936 65.3474 9.852 65.562 9.684C65.786 9.50667 65.898 9.264 65.898 8.956C65.898 8.72267 65.8187 8.52667 65.66 8.368C65.5107 8.2 65.2447 8.09267 64.862 8.046L64.19 7.962C63.4434 7.86867 62.8554 7.654 62.426 7.318C62.006 6.97267 61.796 6.464 61.796 5.792C61.796 5.43733 61.8614 5.12467 61.992 4.854C62.1227 4.574 62.3047 4.34067 62.538 4.154C62.7807 3.958 63.0654 3.80867 63.392 3.706C63.728 3.60333 64.0967 3.552 64.498 3.552C65.1514 3.552 65.6834 3.65467 66.094 3.86C66.514 4.06533 66.8874 4.35 67.214 4.714L66.276 5.61C66.0894 5.386 65.842 5.19467 65.534 5.036C65.2354 4.868 64.89 4.784 64.498 4.784C64.078 4.784 63.7654 4.868 63.56 5.036C63.364 5.204 63.266 5.42333 63.266 5.694C63.266 5.974 63.3547 6.184 63.532 6.324C63.7094 6.464 63.994 6.56667 64.386 6.632L65.058 6.716C65.8607 6.83733 66.444 7.07533 66.808 7.43C67.1814 7.77533 67.368 8.242 67.368 8.83C67.368 9.18467 67.298 9.50667 67.158 9.796C67.0274 10.076 66.836 10.3187 66.584 10.524C66.332 10.7293 66.0287 10.888 65.674 11C65.3194 11.112 64.9227 11.168 64.484 11.168Z" fill="#525252"/>
</svg>
